<?xml version="1.0" encoding="UTF-8"?><svg id="Camada_2" xmlns="http://www.w3.org/2000/svg" viewBox="0 0 507.22 252.82"><defs><style>.cls-1{font-family:RobotoMono-Regular, 'Roboto Mono';font-size:28.18px;font-variation-settings:'wght' 400;}.cls-1,.cls-2{fill:#757575;}.cls-3{fill:#00e266;}</style></defs><g id="Camada_1-2"><path class="cls-3" d="M334.58,193.18H0V0H334.58V193.18ZM5,188.18H329.58V5H5V188.18Z"/><path class="cls-2" d="M507.22,161.79h-201.25V31.32h201.25V161.79Zm-196.25-5h191.25V36.32h-191.25v120.47Z"/><path class="cls-2" d="M62.84,143.36c-5.72,0-10.77-1.42-15.15-4.26-4.38-2.84-7.81-6.8-10.29-11.89-2.48-5.09-3.72-10.99-3.72-17.71v-2.63c0-6.59,1.2-12.43,3.59-17.52,2.39-5.09,5.77-9.07,10.13-11.95,4.36-2.88,9.49-4.32,15.37-4.32,5.34,0,10.08,.99,14.23,2.97,4.15,1.98,7.62,4.54,10.42,7.67l.13,15.33h-6.35l-1.02-12.64c-2.12-2.21-4.6-3.93-7.43-5.16-2.84-1.23-6.1-1.85-9.78-1.85-4.32,0-8.11,1.19-11.37,3.57-3.26,2.38-5.79,5.64-7.59,9.79-1.8,4.15-2.7,8.85-2.7,14.11v2.63c0,5.51,.89,10.34,2.67,14.49,1.78,4.15,4.28,7.37,7.5,9.67,3.22,2.29,7.03,3.44,11.43,3.44,5.12,0,9.4-1.32,12.83-3.97,3.43-2.65,5.5-6.56,6.22-11.73h6.8l.13,.38c-.38,4.26-1.66,8.01-3.84,11.26-2.18,3.25-5.15,5.79-8.89,7.6-3.75,1.81-8.18,2.72-13.31,2.72Z"/><path class="cls-2" d="M104.62,143.53v-5.55l10.35-.83v-56.18l-10.35-.83v-5.61h17.02l.83,10.52,.06,1.85c1.95-4.29,4.59-7.64,7.94-10.04,3.34-2.4,7.35-3.6,12.01-3.6,1.14,0,2.36,.1,3.65,.29,1.29,.19,2.23,.39,2.83,.61l-.95,7.01-7.05-.45c-4.87-.13-8.85,1.28-11.94,4.21-3.09,2.93-5.23,6.82-6.42,11.67v40.56l10.35,.83v5.55h-28.33Z"/><path class="cls-2" d="M187.61,143.3c-5.89,0-11.08-1.4-15.56-4.2-4.49-2.8-8-6.68-10.54-11.65-2.54-4.96-3.81-10.68-3.81-17.16v-3.43c0-6.44,1.27-12.18,3.81-17.22,2.54-5.04,5.98-9.02,10.32-11.93,4.34-2.91,9.18-4.36,14.52-4.36,5.63,0,10.45,1.18,14.45,3.55,4,2.37,7.07,5.7,9.21,10,2.14,4.3,3.21,9.35,3.21,15.17v6.35h-47.64l-.13,2.74c.04,4.98,.98,9.43,2.83,13.33,1.84,3.9,4.42,6.98,7.75,9.22,3.32,2.24,7.19,3.36,11.59,3.36s8.12-.67,11.4-2.02c3.28-1.35,6.17-3.19,8.67-5.51l3.24,5.11c-2.67,2.49-5.9,4.56-9.69,6.2-3.79,1.64-8.33,2.46-13.63,2.46Zm-21.54-41.11h39.51v-1.87c0-3.94-.77-7.48-2.32-10.62-1.55-3.13-3.75-5.59-6.61-7.38-2.86-1.78-6.3-2.68-10.32-2.68-3.64,0-6.92,.97-9.85,2.9-2.92,1.93-5.3,4.57-7.15,7.91-1.84,3.34-2.98,7.13-3.4,11.37l.13,.37Z"/><path class="cls-2" d="M253.45,143.36c-5.46,0-10.16-1.4-14.1-4.19-3.94-2.8-6.95-6.71-9.02-11.75-2.08-5.04-3.11-10.99-3.11-17.85v-1.33c0-7.33,1.04-13.7,3.11-19.12,2.08-5.42,5.09-9.62,9.05-12.61,3.96-2.99,8.69-4.48,14.2-4.48,4.79,0,8.95,1.02,12.48,3.05,3.54,2.03,6.45,4.87,8.74,8.51V49.34l-10.36-.83v-5.59h17.98v93.76l10.35,.83v6.03s-17.15,0-17.15,0l-.57-11.23c-2.25,3.47-5.19,6.18-8.83,8.13-3.64,1.95-7.9,2.92-12.77,2.92Zm1.4-6.54c4.96,0,9.08-1.12,12.39-3.37,3.3-2.24,5.82-5.29,7.56-9.15v-32.08c-1.65-3.98-4.07-7.25-7.24-9.81-3.18-2.56-7.37-3.84-12.58-3.84-4.45,0-8.15,1.25-11.12,3.75-2.96,2.5-5.2,5.97-6.7,10.42-1.5,4.45-2.26,9.61-2.26,15.5v1.33c0,8.3,1.66,14.92,4.99,19.85,3.32,4.93,8.31,7.4,14.96,7.4Z"/><path class="cls-3" d="M347.77,143.38v-15.64h15.82v15.64h-15.82Z"/><polygon class="cls-3" points="374.71 143.56 374.71 133.54 384.47 131.59 384.47 85.22 374.13 83.26 374.13 73.18 400.86 73.18 400.86 131.59 410.55 133.54 410.55 143.56 374.71 143.56"/><rect class="cls-3" x="382.96" y="49.43" width="17.71" height="15.75"/><path class="cls-3" d="M449.85,143.53c-6.52,0-12.12-1.46-16.79-4.39-4.68-2.92-8.27-6.99-10.78-12.19s-3.76-11.19-3.76-17.95v-1.32c0-6.73,1.25-12.68,3.76-17.86,2.51-5.18,6.1-9.25,10.78-12.22,4.68-2.97,10.24-4.45,16.67-4.45s12.12,1.47,16.8,4.42c4.68,2.95,8.27,7.01,10.78,12.19,2.51,5.18,3.76,11.15,3.76,17.92v1.32c0,6.77-1.25,12.75-3.76,17.95s-6.09,9.27-10.75,12.19c-4.66,2.92-10.23,4.39-16.7,4.39Zm0-12.16c3.51,0,6.4-.95,8.68-2.85,2.28-1.9,3.98-4.53,5.11-7.9,1.13-3.36,1.69-7.24,1.69-11.63v-1.32c0-4.34-.56-8.19-1.69-11.53-1.13-3.34-2.84-5.97-5.14-7.9-2.3-1.92-5.22-2.88-8.77-2.88s-6.35,.96-8.65,2.88c-2.3,1.92-4,4.55-5.11,7.9-1.11,3.34-1.66,7.19-1.66,11.53v1.32c0,4.39,.55,8.26,1.66,11.63,1.11,3.36,2.82,6,5.14,7.9,2.32,1.9,5.23,2.85,8.74,2.85Z"/><text class="cls-1" transform="translate(7.88 245.18)"><tspan x="0" y="0">Facilitando seu financiamento</tspan></text></g></svg>