<?xml version="1.0" encoding="UTF-8"?><svg id="Camada_2" xmlns="http://www.w3.org/2000/svg" viewBox="0 0 202.53 77.76"><defs><style>.cls-1{stroke:#00e266;}.cls-1,.cls-2{stroke-miterlimit:10;}.cls-1,.cls-3{fill:#00e266;}.cls-2{stroke:#757575;}.cls-2,.cls-4{fill:#757575;}</style></defs><g id="Camada_2-2"><path class="cls-1" d="M133.44,77.26H.5V.5H133.44V77.26ZM2.49,75.27H131.45V2.49H2.49V75.27Z"/><path class="cls-2" d="M202.03,64.79H122.07V12.94h79.96v51.84Zm-77.98-1.99h75.99V14.93H124.06V62.8Z"/><path class="cls-4" d="M25.47,57.46c-2.27,0-4.28-.56-6.02-1.69-1.74-1.13-3.1-2.7-4.09-4.72-.98-2.02-1.48-4.37-1.48-7.04v-1.04c0-2.62,.48-4.94,1.43-6.96,.95-2.02,2.29-3.61,4.03-4.75,1.73-1.14,3.77-1.72,6.11-1.72,2.12,0,4,.39,5.65,1.18,1.65,.79,3.03,1.8,4.14,3.05l.05,6.09h-2.52l-.4-5.02c-.84-.88-1.83-1.56-2.95-2.05-1.13-.49-2.42-.73-3.89-.73-1.72,0-3.22,.47-4.52,1.42-1.3,.94-2.3,2.24-3.02,3.89-.72,1.65-1.07,3.52-1.07,5.61v1.04c0,2.19,.35,4.11,1.06,5.76,.71,1.65,1.7,2.93,2.98,3.84,1.28,.91,2.79,1.37,4.54,1.37,2.04,0,3.74-.53,5.1-1.58,1.36-1.05,2.19-2.61,2.47-4.66h2.7l.05,.15c-.15,1.69-.66,3.18-1.53,4.48-.87,1.29-2.04,2.3-3.53,3.02-1.49,.72-3.25,1.08-5.29,1.08Z"/><path class="cls-4" d="M42.07,57.53v-2.2l4.11-.33v-22.32l-4.11-.33v-2.23h6.76l.33,4.18,.03,.73c.77-1.71,1.83-3.04,3.16-3.99,1.33-.95,2.92-1.43,4.77-1.43,.45,0,.94,.04,1.45,.11,.51,.08,.89,.16,1.12,.24l-.38,2.79-2.8-.18c-1.94-.05-3.52,.51-4.75,1.67-1.23,1.17-2.08,2.71-2.55,4.64v16.11l4.11,.33v2.2h-11.26Z"/><path class="cls-4" d="M75.05,57.44c-2.34,0-4.4-.56-6.18-1.67-1.78-1.11-3.18-2.66-4.19-4.63-1.01-1.97-1.51-4.24-1.51-6.82v-1.36c0-2.56,.5-4.84,1.51-6.84,1.01-2,2.38-3.58,4.1-4.74,1.72-1.15,3.65-1.73,5.77-1.73,2.24,0,4.15,.47,5.74,1.41,1.59,.94,2.81,2.26,3.66,3.97,.85,1.71,1.27,3.72,1.27,6.03v2.52h-18.93l-.05,1.09c.02,1.98,.39,3.75,1.12,5.3,.73,1.55,1.76,2.77,3.08,3.66,1.32,.89,2.86,1.34,4.61,1.34s3.23-.27,4.53-.8c1.3-.54,2.45-1.27,3.45-2.19l1.29,2.03c-1.06,.99-2.34,1.81-3.85,2.46-1.51,.65-3.31,.98-5.41,.98Zm-8.56-16.33h15.7v-.74c0-1.57-.31-2.97-.92-4.22-.61-1.25-1.49-2.22-2.62-2.93-1.14-.71-2.5-1.06-4.1-1.06-1.45,0-2.75,.38-3.91,1.15-1.16,.77-2.11,1.81-2.84,3.14-.73,1.33-1.18,2.83-1.35,4.52l.05,.15Z"/><path class="cls-4" d="M101.21,57.46c-2.17,0-4.04-.56-5.6-1.67-1.57-1.11-2.76-2.67-3.58-4.67-.82-2-1.24-4.37-1.24-7.09v-.53c0-2.91,.41-5.44,1.24-7.6,.82-2.15,2.02-3.82,3.6-5.01,1.57-1.19,3.45-1.78,5.64-1.78,1.9,0,3.55,.4,4.96,1.21,1.41,.81,2.56,1.94,3.47,3.38v-13.6l-4.11-.33v-2.22h7.14V54.81l4.11,.33v2.39h-6.81l-.23-4.46c-.89,1.38-2.06,2.46-3.51,3.23-1.45,.77-3.14,1.16-5.07,1.16Zm.56-2.6c1.97,0,3.61-.45,4.92-1.34,1.31-.89,2.31-2.1,3-3.63v-12.75c-.66-1.58-1.62-2.88-2.88-3.9-1.26-1.02-2.93-1.53-5-1.53-1.77,0-3.24,.5-4.42,1.49-1.18,.99-2.07,2.37-2.66,4.14-.6,1.77-.9,3.82-.9,6.16v.53c0,3.3,.66,5.93,1.98,7.89,1.32,1.96,3.3,2.94,5.94,2.94Z"/><path class="cls-3" d="M138.68,57.47v-6.22h6.29v6.22h-6.29Z"/><polygon class="cls-3" points="149.39 57.54 149.39 53.56 153.26 52.79 153.26 34.36 149.15 33.58 149.15 29.58 159.78 29.58 159.78 52.79 163.63 53.56 163.63 57.54 149.39 57.54"/><rect class="cls-3" x="152.66" y="20.14" width="7.04" height="6.26"/><path class="cls-3" d="M179.24,57.53c-2.59,0-4.81-.58-6.67-1.74-1.86-1.16-3.29-2.78-4.28-4.84s-1.49-4.44-1.49-7.13v-.52c0-2.67,.5-5.04,1.49-7.1,1-2.06,2.42-3.68,4.28-4.86,1.86-1.18,4.07-1.77,6.62-1.77s4.81,.59,6.67,1.76c1.86,1.17,3.29,2.78,4.28,4.84,1,2.06,1.49,4.43,1.49,7.12v.52c0,2.69-.5,5.07-1.49,7.13s-2.42,3.68-4.27,4.84c-1.85,1.16-4.06,1.74-6.64,1.74Zm0-4.83c1.39,0,2.54-.38,3.45-1.13,.9-.76,1.58-1.8,2.03-3.14,.45-1.34,.67-2.88,.67-4.62v-.52c0-1.73-.22-3.25-.67-4.58-.45-1.33-1.13-2.37-2.04-3.14-.91-.76-2.08-1.15-3.49-1.15s-2.52,.38-3.44,1.15c-.91,.76-1.59,1.81-2.03,3.14-.44,1.33-.66,2.86-.66,4.58v.52c0,1.74,.22,3.28,.66,4.62,.44,1.34,1.12,2.38,2.04,3.14,.92,.76,2.08,1.13,3.47,1.13Z"/></g></svg>